<svg id="Layer_1" data-name="Layer 1" xmlns="http://www.w3.org/2000/svg" viewBox="0 0 332.71 243.42"><path d="M216.48,220.07v65.16a3.92,3.92,0,0,1-7.84,0V226.08l-13.06,5.76v53.39a3.92,3.92,0,0,1-3.92,3.91H68.41a3.92,3.92,0,1,1,0-7.83H187.74v-52a3.92,3.92,0,0,1,2.33-3.59l20.9-9.22a3.92,3.92,0,0,1,5.51,3.59Zm176.8,61.24H253.13a3.92,3.92,0,1,0,0,7.83H393.28a3.92,3.92,0,1,0,0-7.83ZM120.56,145l36.27,16.59a3.78,3.78,0,0,0,1.63.36,3.92,3.92,0,0,0,1.63-7.48l-36.26-16.6a3.92,3.92,0,0,0-3.27,7.13ZM245.45,81.76l29.3,13.41A3.92,3.92,0,1,0,278,88l-29.29-13.4a3.92,3.92,0,1,0-3.27,7.12Zm0,19,29.3,13.41a3.92,3.92,0,1,0,3.26-7.13l-29.29-13.4a3.92,3.92,0,1,0-3.27,7.12Zm0,19,29.3,13.4a3.92,3.92,0,1,0,3.26-7.12l-29.29-13.41a3.92,3.92,0,1,0-3.27,7.13Zm0,19,29.3,13.4a3.78,3.78,0,0,0,1.63.36,3.92,3.92,0,0,0,1.63-7.48l-29.29-13.41a3.92,3.92,0,1,0-3.27,7.13Zm0,19,29.3,13.41a3.92,3.92,0,1,0,3.26-7.13L248.72,150.8a3.92,3.92,0,1,0-3.27,7.13Zm0,19,29.3,13.41a3.92,3.92,0,1,0,3.26-7.13l-29.29-13.41a3.92,3.92,0,0,0-3.27,7.13Zm0,19,29.3,13.41a3.92,3.92,0,1,0,3.26-7.13l-29.29-13.41a3.92,3.92,0,0,0-3.27,7.13Zm0,19,29.3,13.41a3.92,3.92,0,1,0,3.26-7.13l-29.29-13.4a3.92,3.92,0,1,0-3.27,7.12Zm30.93,32.81a3.92,3.92,0,0,0,1.63-7.49L248.72,227a3.92,3.92,0,1,0-3.27,7.12l29.3,13.41A3.94,3.94,0,0,0,276.38,247.86ZM120.56,164.69l36.27,16.6a3.92,3.92,0,1,0,3.26-7.13l-36.26-16.59a3.92,3.92,0,1,0-3.27,7.12Zm0,19.75L156.83,201a3.92,3.92,0,1,0,3.26-7.13l-36.26-16.59a3.92,3.92,0,1,0-3.27,7.12Zm0,19.75,36.27,16.6a3.92,3.92,0,1,0,3.26-7.13l-36.26-16.6a3.92,3.92,0,0,0-3.27,7.13Zm0,19.75,36.27,16.59a3.78,3.78,0,0,0,1.63.36,3.92,3.92,0,0,0,1.63-7.48l-36.26-16.6a3.92,3.92,0,0,0-3.27,7.13Zm221.3-79,36.27,16.59a3.78,3.78,0,0,0,1.63.36,3.92,3.92,0,0,0,1.63-7.48l-36.27-16.6a3.92,3.92,0,0,0-3.26,7.13Zm0,19.74,36.27,16.6a3.92,3.92,0,0,0,3.26-7.13l-36.27-16.59a3.92,3.92,0,1,0-3.26,7.12Zm0,19.75L378.13,201a3.92,3.92,0,0,0,3.26-7.13l-36.27-16.59a3.92,3.92,0,1,0-3.26,7.12Zm0,19.75,36.27,16.6a3.92,3.92,0,0,0,3.26-7.13l-36.27-16.6a3.92,3.92,0,0,0-3.26,7.13Zm0,19.75,36.27,16.59a3.78,3.78,0,0,0,1.63.36,3.92,3.92,0,0,0,1.63-7.48l-36.27-16.6a3.92,3.92,0,0,0-3.26,7.13Zm55.32-82.8a3,3,0,0,0-.05-.42c0-.13-.05-.25-.08-.37s-.07-.24-.11-.35-.11-.24-.16-.36l-.18-.32a3.46,3.46,0,0,0-.22-.31,3.36,3.36,0,0,0-.24-.29,2.27,2.27,0,0,0-.28-.26,1.68,1.68,0,0,0-.29-.24,2.21,2.21,0,0,0-.36-.23,2.12,2.12,0,0,0-.2-.12l-62.7-30.74-.05,0a3.91,3.91,0,0,0-.65-.24l-.15,0a2.72,2.72,0,0,0-.56-.09h-.14a4.56,4.56,0,0,0-.64,0l-.18,0a3.53,3.53,0,0,0-.54.13l-.12,0a5.16,5.16,0,0,0-.49.21l-34.86,18V77.45a3.93,3.93,0,0,0-2.29-3.56L235.08,48.07l-.05,0a4.52,4.52,0,0,0-.62-.21l-.12,0a3,3,0,0,0-.66-.08h-.15a4.07,4.07,0,0,0-.61.05h-.07a3.69,3.69,0,0,0-.65.18L232,48l-.19.08L170.35,76.35a3.92,3.92,0,0,0-2.28,3.56V135.1l-57.06-28-.05,0a3.81,3.81,0,0,0-.64-.24l-.16,0a2.62,2.62,0,0,0-.56-.09h-.14a4.61,4.61,0,0,0-.64,0l-.17,0a3.39,3.39,0,0,0-.55.13l-.11,0a4.4,4.4,0,0,0-.5.21l-40.57,20.9a3.94,3.94,0,0,0-2.12,3.49v126a3.92,3.92,0,1,0,7.83,0V133.94l32.74-16.86V254.49a3.92,3.92,0,1,0,7.83,0V116.93l54.87,26.9V263.1a3.92,3.92,0,1,0,7.84,0V82.42l53.63-24.67V287.22a3.92,3.92,0,1,0,7.84,0V57.73L286.09,80V257.56a3.92,3.92,0,0,0,7.84,0V133.94l32.73-16.86v140a3.92,3.92,0,0,0,7.84,0V116.93l54.86,26.9V257.56a3.92,3.92,0,0,0,7.84,0V141.38C397.2,141.3,397.18,141.22,397.18,141.14Z" transform="translate(-64.49 -47.72)" style="fill:#fff"/></svg>